<?xml version="1.0" standalone="no"?>
<!DOCTYPE svg PUBLIC "-//W3C//DTD SVG 1.1//EN"
"http://www.w3.org/Graphics/SVG/1.1/DTD/svg11.dtd">

<svg width="585" height="515" view_box="0 0 585 515"
xmlns="http://www.w3.org/2000/svg"
xmlns:link="http://www.w3.org/1999/xlink">\n\n<desc>Généré par Mocodo 2.3.7 le Sat, 05 Oct 2019 04:30:48</desc>

<rect id="frame" x="0" y="0" width="585" height="515" fill="#ffffbf" stroke="none" stroke-width="0"/>

<!-- Association has sanction -->
<line x1="49" y1="68" x2="166" y2="68" stroke="#f46d43" stroke-width="2"/>
<text x="94" y="85.0" fill="#4575b4" font-family="Verdana" font-size="12">1,1</text>
<line x1="287" y1="68" x2="166" y2="68" stroke="#f46d43" stroke-width="2"/>
<text x="222" y="60.0" fill="#4575b4" font-family="Verdana" font-size="12">0,N</text>
<g id="association-has sanction">
	<path d="M 197 43 a 14 14 90 0 1 14 14 V 68 h -90 V 57 a 14 14 90 0 1 14 -14" fill="#fdae61" stroke="#fdae61" stroke-width="0"/>
	<path d="M 211 68.0 v 11 a 14 14 90 0 1 -14 14 H 135 a 14 14 90 0 1 -14 -14 V 68.0 H 90" fill="#fee090" stroke="#fee090" stroke-width="0"/>
	<rect x="121" y="43" width="90" height="50" fill="none" rx="14" stroke="#f46d43" stroke-width="2"/>
	<line x1="121" y1="68" x2="211" y2="68" stroke="#f46d43" stroke-width="1"/>
	<text x="128" y="60.7" fill="#000000" font-family="Verdana" font-size="12">has sanction</text>
</g>

<!-- Association has comment -->
<line x1="287" y1="68" x2="166" y2="194" stroke="#f46d43" stroke-width="2"/>
<text x="222" y="106.438862188" fill="#4575b4" font-family="Verdana" font-size="12">0,N</text>
<line x1="287" y1="194" x2="166" y2="194" stroke="#f46d43" stroke-width="2"/>
<text x="221" y="211.0" fill="#4575b4" font-family="Verdana" font-size="12">1,1</text>
<g id="association-has comment">
	<path d="M 201 169 a 14 14 90 0 1 14 14 V 194 h -98 V 183 a 14 14 90 0 1 14 -14" fill="#fdae61" stroke="#fdae61" stroke-width="0"/>
	<path d="M 215 194.0 v 11 a 14 14 90 0 1 -14 14 H 131 a 14 14 90 0 1 -14 -14 V 194.0 H 98" fill="#fee090" stroke="#fee090" stroke-width="0"/>
	<rect x="117" y="169" width="98" height="50" fill="none" rx="14" stroke="#f46d43" stroke-width="2"/>
	<line x1="117" y1="194" x2="215" y2="194" stroke="#f46d43" stroke-width="1"/>
	<text x="124" y="186.7" fill="#000000" font-family="Verdana" font-size="12">has comment</text>
</g>

<!-- Association has application -->
<line x1="287" y1="194" x2="412" y2="194" stroke="#f46d43" stroke-width="2"/>
<text x="332" y="211.0" fill="#4575b4" font-family="Verdana" font-size="12">1,1</text>
<line x1="287" y1="320" x2="412" y2="194" stroke="#f46d43" stroke-width="2"/>
<text x="339" y="282.592839939" fill="#4575b4" font-family="Verdana" font-size="12">0,N</text>
<g id="association-has application">
	<path d="M 451 169 a 14 14 90 0 1 14 14 V 194 h -106 V 183 a 14 14 90 0 1 14 -14" fill="#fdae61" stroke="#fdae61" stroke-width="0"/>
	<path d="M 465 194.0 v 11 a 14 14 90 0 1 -14 14 H 373 a 14 14 90 0 1 -14 -14 V 194.0 H 106" fill="#fee090" stroke="#fee090" stroke-width="0"/>
	<rect x="359" y="169" width="106" height="50" fill="none" rx="14" stroke="#f46d43" stroke-width="2"/>
	<line x1="359" y1="194" x2="465" y2="194" stroke="#f46d43" stroke-width="1"/>
	<text x="366" y="186.7" fill="#000000" font-family="Verdana" font-size="12">has application</text>
</g>

<!-- Association related to user -->
<line x1="287" y1="68" x2="412" y2="68" stroke="#f46d43" stroke-width="2"/>
<text x="330" y="85.0" fill="#4575b4" font-family="Verdana" font-size="12">0,1</text>
<line x1="536" y1="68" x2="412" y2="68" stroke="#f46d43" stroke-width="2"/>
<text x="470" y="85.0" fill="#4575b4" font-family="Verdana" font-size="12">1,1</text>
<g id="association-related to user">
	<path d="M 450 43 a 14 14 90 0 1 14 14 V 68 h -104 V 57 a 14 14 90 0 1 14 -14" fill="#fdae61" stroke="#fdae61" stroke-width="0"/>
	<path d="M 464 68.0 v 11 a 14 14 90 0 1 -14 14 H 374 a 14 14 90 0 1 -14 -14 V 68.0 H 104" fill="#fee090" stroke="#fee090" stroke-width="0"/>
	<rect x="360" y="43" width="104" height="50" fill="none" rx="14" stroke="#f46d43" stroke-width="2"/>
	<line x1="360" y1="68" x2="464" y2="68" stroke="#f46d43" stroke-width="1"/>
	<text x="367" y="60.7" fill="#000000" font-family="Verdana" font-size="12">related to user</text>
</g>

<!-- Entity COMMENT -->
<g id="entity-COMMENT">
	<g id="frame-COMMENT">
		<rect x="247" y="152" width="80" height="25" fill="#abd9e9" stroke="#abd9e9" stroke-width="0"/>
		<rect x="247" y="177.0" width="80" height="59" fill="#e0f3f8" stroke="#e0f3f8" stroke-width="0"/>
		<rect x="247" y="152" width="80" height="84" fill="none" stroke="#74add1" stroke-width="2"/>
		<line x1="247" y1="177" x2="327" y2="177" stroke="#74add1" stroke-width="1"/>
	</g>
	<text x="255" y="169.7" fill="#000000" font-family="Verdana" font-size="12">COMMENT</text>
	<text x="252" y="194.8" fill="#000000" font-family="Verdana" font-size="12">content</text>
	<line x1="252" y1="197" x2="298" y2="197" stroke="#000000" stroke-width="1"/>
	<text x="252" y="211.8" fill="#000000" font-family="Verdana" font-size="12">created_at</text>
	<text x="252" y="228.8" fill="#000000" font-family="Verdana" font-size="12">updated_at</text>
</g>

<!-- Entity APPLICATION -->
<g id="entity-APPLICATION">
	<g id="frame-APPLICATION">
		<rect x="240" y="261" width="94" height="25" fill="#abd9e9" stroke="#abd9e9" stroke-width="0"/>
		<rect x="240" y="286.0" width="94" height="93" fill="#e0f3f8" stroke="#e0f3f8" stroke-width="0"/>
		<rect x="240" y="261" width="94" height="118" fill="none" stroke="#74add1" stroke-width="2"/>
		<line x1="240" y1="286" x2="334" y2="286" stroke="#74add1" stroke-width="1"/>
	</g>
	<text x="245" y="278.7" fill="#000000" font-family="Verdana" font-size="12">APPLICATION</text>
	<text x="245" y="303.7" fill="#000000" font-family="Verdana" font-size="12">name</text>
	<line x1="245" y1="306" x2="280" y2="306" stroke="#000000" stroke-width="1"/>
	<text x="245" y="320.8" fill="#000000" font-family="Verdana" font-size="12">post</text>
	<text x="245" y="337.8" fill="#000000" font-family="Verdana" font-size="12">content</text>
	<text x="245" y="354.8" fill="#000000" font-family="Verdana" font-size="12">created_at</text>
	<text x="245" y="371.8" fill="#000000" font-family="Verdana" font-size="12">updated_at</text>
</g>

<!-- Entity USER -->
<g id="entity-USER">
	<g id="frame-USER">
		<rect x="249" y="9" width="76" height="25" fill="#abd9e9" stroke="#abd9e9" stroke-width="0"/>
		<rect x="249" y="34.0" width="76" height="93" fill="#e0f3f8" stroke="#e0f3f8" stroke-width="0"/>
		<rect x="249" y="9" width="76" height="118" fill="none" stroke="#74add1" stroke-width="2"/>
		<line x1="249" y1="34" x2="325" y2="34" stroke="#74add1" stroke-width="1"/>
	</g>
	<text x="270" y="26.7" fill="#000000" font-family="Verdana" font-size="12">USER</text>
	<text x="254" y="51.7" fill="#000000" font-family="Verdana" font-size="12">username</text>
	<line x1="254" y1="54" x2="315" y2="54" stroke="#000000" stroke-width="1"/>
	<text x="254" y="68.8" fill="#000000" font-family="Verdana" font-size="12">password</text>
	<text x="254" y="85.8" fill="#000000" font-family="Verdana" font-size="12">roles</text>
	<text x="254" y="102.8" fill="#000000" font-family="Verdana" font-size="12">borderline</text>
	<text x="254" y="119.8" fill="#000000" font-family="Verdana" font-size="12">created_at</text>
</g>

<!-- Entity SANCTION -->
<g id="entity-SANCTION">
	<g id="frame-SANCTION">
		<rect x="9" y="9" width="80" height="25" fill="#abd9e9" stroke="#abd9e9" stroke-width="0"/>
		<rect x="9" y="34.0" width="80" height="93" fill="#e0f3f8" stroke="#e0f3f8" stroke-width="0"/>
		<rect x="9" y="9" width="80" height="118" fill="none" stroke="#74add1" stroke-width="2"/>
		<line x1="9" y1="34" x2="89" y2="34" stroke="#74add1" stroke-width="1"/>
	</g>
	<text x="16" y="26.7" fill="#000000" font-family="Verdana" font-size="12">SANCTION</text>
	<text x="14" y="51.7" fill="#000000" font-family="Verdana" font-size="12">sanction</text>
	<line x1="14" y1="54" x2="65" y2="54" stroke="#000000" stroke-width="1"/>
	<text x="14" y="68.8" fill="#000000" font-family="Verdana" font-size="12">motif</text>
	<text x="14" y="85.8" fill="#000000" font-family="Verdana" font-size="12">created_at</text>
	<text x="14" y="102.8" fill="#000000" font-family="Verdana" font-size="12">updated_at</text>
	<text x="14" y="119.8" fill="#000000" font-family="Verdana" font-size="12">end_time</text>
</g>

<!-- Entity ACTION -->
<g id="entity-ACTION">
	<g id="frame-ACTION">
		<rect x="496" y="17" width="80" height="25" fill="#abd9e9" stroke="#abd9e9" stroke-width="0"/>
		<rect x="496" y="42.0" width="80" height="77" fill="#e0f3f8" stroke="#e0f3f8" stroke-width="0"/>
		<rect x="496" y="17" width="80" height="102" fill="none" stroke="#74add1" stroke-width="2"/>
		<line x1="496" y1="42" x2="576" y2="42" stroke="#74add1" stroke-width="1"/>
	</g>
	<text x="511" y="34.7" fill="#000000" font-family="Verdana" font-size="12">ACTION</text>
	<text x="501" y="59.7" fill="#000000" font-family="Verdana" font-size="12">action</text>
	<line x1="501" y1="62" x2="538" y2="62" stroke="#000000" stroke-width="1"/>
	<text x="501" y="76.8" fill="#000000" font-family="Verdana" font-size="12">description</text>
	<text x="501" y="93.8" fill="#000000" font-family="Verdana" font-size="12">created_at</text>
	<text x="501" y="110.8" fill="#000000" font-family="Verdana" font-size="12">updated_at</text>
</g>

<!-- Entity GUIDE -->
<g id="entity-GUIDE">
	<g id="frame-GUIDE">
		<rect x="247" y="404" width="80" height="25" fill="#abd9e9" stroke="#abd9e9" stroke-width="0"/>
		<rect x="247" y="429.0" width="80" height="77" fill="#e0f3f8" stroke="#e0f3f8" stroke-width="0"/>
		<rect x="247" y="404" width="80" height="102" fill="none" stroke="#74add1" stroke-width="2"/>
		<line x1="247" y1="429" x2="327" y2="429" stroke="#74add1" stroke-width="1"/>
	</g>
	<text x="266" y="421.7" fill="#000000" font-family="Verdana" font-size="12">GUIDE</text>
	<text x="252" y="446.7" fill="#000000" font-family="Verdana" font-size="12">title</text>
	<line x1="252" y1="449" x2="276" y2="449" stroke="#000000" stroke-width="1"/>
	<text x="252" y="463.8" fill="#000000" font-family="Verdana" font-size="12">content</text>
	<text x="252" y="480.8" fill="#000000" font-family="Verdana" font-size="12">created_at</text>
	<text x="252" y="497.8" fill="#000000" font-family="Verdana" font-size="12">updated_at</text>
</g>
</svg>